<svg enable-background="new 0 0 512 512" height="512" viewBox="0 0 512 512" width="512" xmlns="http://www.w3.org/2000/svg"><path d="m512 256c0 141.385-114.615 256-256 256s-256-114.615-256-256 114.615-256 256-256c141.321.153 255.847 114.679 256 256zm-448 0c0 106.039 85.961 192 192 192s192-85.961 192-192-85.961-192-192-192c-105.985.129-191.871 86.015-192 192zm183.467 122.262 109.952-108.523c7.587-7.407 7.733-19.563.326-27.15-.107-.11-.217-.219-.326-.327l-109.952-108.523c-7.725-7.671-20.206-7.627-27.877.098-3.606 3.631-5.659 8.523-5.723 13.641v217.045c.137 10.886 9.073 19.6 19.959 19.462 5.117-.065 10.009-2.118 13.641-5.723z"/></svg>